<?xml version="1.0" encoding="UTF-8" standalone="no"?>
<!-- Created with Inkscape (http://www.inkscape.org/) -->

<svg
   width="360"
   height="360"
   viewBox="0 0 359.99999 359.99999"
   version="1.1"
   id="svg1"
   inkscape:export-filename="favicon.png"
   inkscape:export-xdpi="96"
   inkscape:export-ydpi="96"
   sodipodi:docname="logoShort.svg"
   inkscape:version="1.3.2 (091e20ef0f, 2023-11-25, custom)"
   xmlns:inkscape="http://www.inkscape.org/namespaces/inkscape"
   xmlns:sodipodi="http://sodipodi.sourceforge.net/DTD/sodipodi-0.dtd"
   xmlns="http://www.w3.org/2000/svg"
   xmlns:svg="http://www.w3.org/2000/svg">
  <sodipodi:namedview
     id="namedview1"
     pagecolor="#505050"
     bordercolor="#eeeeee"
     borderopacity="1"
     inkscape:showpageshadow="0"
     inkscape:pageopacity="0"
     inkscape:pagecheckerboard="0"
     inkscape:deskcolor="#505050"
     inkscape:document-units="px"
     inkscape:zoom="1.0333333"
     inkscape:cx="24.677419"
     inkscape:cy="325.16129"
     inkscape:window-width="1916"
     inkscape:window-height="1048"
     inkscape:window-x="0"
     inkscape:window-y="434"
     inkscape:window-maximized="1"
     inkscape:current-layer="layer2" />
  <defs
     id="defs1">
    <inkscape:path-effect
       effect="powerstroke"
       id="path-effect232"
       is_visible="true"
       lpeversion="1.3"
       scale_width="1"
       interpolator_type="CentripetalCatmullRom"
       interpolator_beta="0.75"
       start_linecap_type="round"
       end_linecap_type="round"
       offset_points="21.776291,6.6518847"
       linejoin_type="spiro"
       miter_limit="4"
       not_jump="true"
       sort_points="true"
       message="&lt;b&gt;Ctrl + click&lt;/b&gt; on existing node and move it" />
    <inkscape:path-effect
       effect="simplify"
       id="path-effect231"
       is_visible="true"
       lpeversion="1.3"
       threshold="0.012"
       steps="1"
       smooth_angles="0"
       helper_size="0"
       simplify_individual_paths="false"
       simplify_just_coalesce="false"
       step="1" />
    <inkscape:path-effect
       effect="powerstroke"
       id="path-effect230"
       is_visible="true"
       lpeversion="1.3"
       scale_width="1"
       interpolator_type="CentripetalCatmullRom"
       interpolator_beta="0.75"
       start_linecap_type="round"
       end_linecap_type="round"
       offset_points="2.0896913,6.6518847"
       linejoin_type="spiro"
       miter_limit="4"
       not_jump="true"
       sort_points="true"
       message="&lt;b&gt;Ctrl + click&lt;/b&gt; on existing node and move it" />
    <inkscape:path-effect
       effect="simplify"
       id="path-effect229"
       is_visible="true"
       lpeversion="1.3"
       threshold="0.012"
       steps="1"
       smooth_angles="0"
       helper_size="0"
       simplify_individual_paths="false"
       simplify_just_coalesce="false"
       step="1" />
    <inkscape:path-effect
       effect="powerstroke"
       id="path-effect226"
       is_visible="true"
       lpeversion="1.3"
       scale_width="1"
       interpolator_type="CentripetalCatmullRom"
       interpolator_beta="0.75"
       start_linecap_type="round"
       end_linecap_type="round"
       offset_points="18.011541,6.6518847"
       linejoin_type="spiro"
       miter_limit="4"
       not_jump="true"
       sort_points="true"
       message="" />
    <inkscape:path-effect
       effect="simplify"
       id="path-effect225"
       is_visible="true"
       lpeversion="1.3"
       threshold="0.012"
       steps="1"
       smooth_angles="0"
       helper_size="0"
       simplify_individual_paths="false"
       simplify_just_coalesce="false"
       step="1" />
    <inkscape:path-effect
       effect="powerstroke"
       id="path-effect224"
       is_visible="true"
       lpeversion="1.3"
       scale_width="1"
       interpolator_type="CentripetalCatmullRom"
       interpolator_beta="0.75"
       start_linecap_type="round"
       end_linecap_type="round"
       offset_points="6.9389915,6.6518847"
       linejoin_type="spiro"
       miter_limit="4"
       not_jump="true"
       sort_points="true"
       message="€TEw" />
    <inkscape:path-effect
       effect="simplify"
       id="path-effect223"
       is_visible="true"
       lpeversion="1.3"
       threshold="0.012"
       steps="1"
       smooth_angles="0"
       helper_size="0"
       simplify_individual_paths="false"
       simplify_just_coalesce="false"
       step="1" />
    <inkscape:path-effect
       effect="powerstroke"
       id="path-effect216"
       is_visible="true"
       lpeversion="1.3"
       scale_width="1"
       interpolator_type="CentripetalCatmullRom"
       interpolator_beta="0.75"
       start_linecap_type="round"
       end_linecap_type="round"
       offset_points="1.9283948,6.6518847"
       linejoin_type="spiro"
       miter_limit="4"
       not_jump="true"
       sort_points="true"
       message="" />
    <inkscape:path-effect
       effect="simplify"
       id="path-effect215"
       is_visible="true"
       lpeversion="1.3"
       threshold="0.012"
       steps="1"
       smooth_angles="0"
       helper_size="0"
       simplify_individual_paths="false"
       simplify_just_coalesce="false"
       step="1" />
    <inkscape:path-effect
       effect="powerstroke"
       id="path-effect214"
       is_visible="true"
       lpeversion="1.3"
       scale_width="1"
       interpolator_type="CentripetalCatmullRom"
       interpolator_beta="0.75"
       start_linecap_type="round"
       end_linecap_type="round"
       offset_points="2.6627664,6.6518847"
       linejoin_type="spiro"
       miter_limit="4"
       not_jump="true"
       sort_points="true"
       message="€TEw" />
    <inkscape:path-effect
       effect="simplify"
       id="path-effect213"
       is_visible="true"
       lpeversion="1.3"
       threshold="0.012"
       steps="1"
       smooth_angles="0"
       helper_size="0"
       simplify_individual_paths="false"
       simplify_just_coalesce="false"
       step="1" />
    <inkscape:path-effect
       effect="powerstroke"
       id="path-effect212"
       is_visible="true"
       lpeversion="1.3"
       scale_width="1"
       interpolator_type="CentripetalCatmullRom"
       interpolator_beta="0.75"
       start_linecap_type="round"
       end_linecap_type="round"
       offset_points="16.937457,6.6518847"
       linejoin_type="spiro"
       miter_limit="4"
       not_jump="true"
       sort_points="true"
       message="" />
    <inkscape:path-effect
       effect="simplify"
       id="path-effect211"
       is_visible="true"
       lpeversion="1.3"
       threshold="0.012"
       steps="1"
       smooth_angles="0"
       helper_size="0"
       simplify_individual_paths="false"
       simplify_just_coalesce="false"
       step="1" />
    <inkscape:path-effect
       effect="powerstroke"
       id="path-effect208"
       is_visible="true"
       lpeversion="1.3"
       scale_width="1"
       interpolator_type="CentripetalCatmullRom"
       interpolator_beta="0.75"
       start_linecap_type="round"
       end_linecap_type="round"
       offset_points="8.9144624,6.6518847"
       linejoin_type="spiro"
       miter_limit="4"
       not_jump="true"
       sort_points="true"
       message="€TEw" />
    <inkscape:path-effect
       effect="simplify"
       id="path-effect207"
       is_visible="true"
       lpeversion="1.3"
       threshold="0.012"
       steps="1"
       smooth_angles="0"
       helper_size="0"
       simplify_individual_paths="false"
       simplify_just_coalesce="false"
       step="1" />
    <inkscape:path-effect
       effect="powerstroke"
       id="path-effect206"
       is_visible="true"
       lpeversion="1.3"
       scale_width="1"
       interpolator_type="CentripetalCatmullRom"
       interpolator_beta="0.75"
       start_linecap_type="round"
       end_linecap_type="round"
       offset_points="1.1657151,6.6518847"
       linejoin_type="spiro"
       miter_limit="4"
       not_jump="true"
       sort_points="true"
       message="ÀTEw" />
    <inkscape:path-effect
       effect="simplify"
       id="path-effect205"
       is_visible="true"
       lpeversion="1.3"
       threshold="0.012"
       steps="1"
       smooth_angles="0"
       helper_size="0"
       simplify_individual_paths="false"
       simplify_just_coalesce="false"
       step="1" />
    <inkscape:path-effect
       effect="powerstroke"
       id="path-effect204"
       is_visible="true"
       lpeversion="1.3"
       scale_width="1"
       interpolator_type="CentripetalCatmullRom"
       interpolator_beta="0.75"
       start_linecap_type="round"
       end_linecap_type="round"
       offset_points="15.520615,6.6518847"
       linejoin_type="spiro"
       miter_limit="4"
       not_jump="true"
       sort_points="true"
       message="@TEw" />
    <inkscape:path-effect
       effect="simplify"
       id="path-effect203"
       is_visible="true"
       lpeversion="1.3"
       threshold="0.012"
       steps="1"
       smooth_angles="0"
       helper_size="0"
       simplify_individual_paths="false"
       simplify_just_coalesce="false"
       step="1" />
    <inkscape:path-effect
       effect="powerstroke"
       id="path-effect198"
       is_visible="true"
       lpeversion="1.3"
       scale_width="1"
       interpolator_type="CentripetalCatmullRom"
       interpolator_beta="0.75"
       start_linecap_type="round"
       end_linecap_type="round"
       offset_points="3.4764777,6.6518847"
       linejoin_type="spiro"
       miter_limit="4"
       not_jump="true"
       sort_points="true"
       message="@TEw" />
    <inkscape:path-effect
       effect="simplify"
       id="path-effect197"
       is_visible="true"
       lpeversion="1.3"
       threshold="0.012"
       steps="1"
       smooth_angles="0"
       helper_size="0"
       simplify_individual_paths="false"
       simplify_just_coalesce="false"
       step="1" />
    <inkscape:path-effect
       effect="powerstroke"
       id="path-effect196"
       is_visible="true"
       lpeversion="1.3"
       scale_width="1"
       interpolator_type="CentripetalCatmullRom"
       interpolator_beta="0.75"
       start_linecap_type="round"
       end_linecap_type="round"
       offset_points="7.7588831,6.6518847"
       linejoin_type="spiro"
       miter_limit="4"
       not_jump="true"
       sort_points="true"
       message="ÀTEw" />
    <inkscape:path-effect
       effect="simplify"
       id="path-effect195"
       is_visible="true"
       lpeversion="1.3"
       threshold="0.012"
       steps="1"
       smooth_angles="0"
       helper_size="0"
       simplify_individual_paths="false"
       simplify_just_coalesce="false"
       step="1" />
    <inkscape:path-effect
       effect="powerstroke"
       id="path-effect188"
       is_visible="true"
       lpeversion="1.3"
       scale_width="1"
       interpolator_type="CentripetalCatmullRom"
       interpolator_beta="0.75"
       start_linecap_type="round"
       end_linecap_type="round"
       offset_points="8.4615849,6.6518847"
       linejoin_type="spiro"
       miter_limit="4"
       not_jump="true"
       sort_points="true"
       message="@TEw" />
    <inkscape:path-effect
       effect="simplify"
       id="path-effect187"
       is_visible="true"
       lpeversion="1.3"
       threshold="0.012"
       steps="1"
       smooth_angles="0"
       helper_size="0"
       simplify_individual_paths="false"
       simplify_just_coalesce="false"
       step="1" />
    <inkscape:path-effect
       effect="powerstroke"
       id="path-effect180"
       is_visible="true"
       lpeversion="1.3"
       scale_width="1"
       interpolator_type="CentripetalCatmullRom"
       interpolator_beta="0.75"
       start_linecap_type="round"
       end_linecap_type="round"
       offset_points="13.063605,6.6518847"
       linejoin_type="spiro"
       miter_limit="4"
       not_jump="true"
       sort_points="true"
       message="ÀTEw" />
    <inkscape:path-effect
       effect="simplify"
       id="path-effect179"
       is_visible="true"
       lpeversion="1.3"
       threshold="0.012"
       steps="1"
       smooth_angles="0"
       helper_size="0"
       simplify_individual_paths="false"
       simplify_just_coalesce="false"
       step="1" />
    <inkscape:path-effect
       effect="powerstroke"
       id="path-effect176"
       is_visible="true"
       lpeversion="1.3"
       scale_width="1"
       interpolator_type="CentripetalCatmullRom"
       interpolator_beta="0.75"
       start_linecap_type="round"
       end_linecap_type="round"
       offset_points="116.0573,6.6518847"
       linejoin_type="spiro"
       miter_limit="4"
       not_jump="true"
       sort_points="true"
       message="@TEw" />
    <inkscape:path-effect
       effect="simplify"
       id="path-effect175"
       is_visible="true"
       lpeversion="1.3"
       threshold="0.012"
       steps="1"
       smooth_angles="0"
       helper_size="0"
       simplify_individual_paths="false"
       simplify_just_coalesce="false"
       step="1" />
    <inkscape:path-effect
       effect="powerstroke"
       id="path-effect174"
       is_visible="true"
       lpeversion="1.3"
       scale_width="1"
       interpolator_type="CentripetalCatmullRom"
       interpolator_beta="0.75"
       start_linecap_type="round"
       end_linecap_type="round"
       offset_points="1.7005872,6.6518847"
       linejoin_type="spiro"
       miter_limit="4"
       not_jump="true"
       sort_points="true"
       message="ÀTEw" />
    <inkscape:path-effect
       effect="simplify"
       id="path-effect173"
       is_visible="true"
       lpeversion="1.3"
       threshold="0.012"
       steps="1"
       smooth_angles="0"
       helper_size="0"
       simplify_individual_paths="false"
       simplify_just_coalesce="false"
       step="1" />
    <inkscape:path-effect
       effect="powerstroke"
       id="path-effect172"
       is_visible="true"
       lpeversion="1.3"
       scale_width="1"
       interpolator_type="CentripetalCatmullRom"
       interpolator_beta="0.75"
       start_linecap_type="round"
       end_linecap_type="round"
       offset_points="0.82792218,6.6518847"
       linejoin_type="spiro"
       miter_limit="4"
       not_jump="true"
       sort_points="true"
       message="@TEw" />
    <inkscape:path-effect
       effect="simplify"
       id="path-effect171"
       is_visible="true"
       lpeversion="1.3"
       threshold="0.012"
       steps="1"
       smooth_angles="0"
       helper_size="0"
       simplify_individual_paths="false"
       simplify_just_coalesce="false"
       step="1" />
    <inkscape:path-effect
       effect="powerstroke"
       id="path-effect168"
       is_visible="true"
       lpeversion="1.3"
       scale_width="1"
       interpolator_type="CentripetalCatmullRom"
       interpolator_beta="0.75"
       start_linecap_type="round"
       end_linecap_type="round"
       offset_points="4.706545,6.6518847"
       linejoin_type="spiro"
       miter_limit="4"
       not_jump="true"
       sort_points="true"
       message="À" />
    <inkscape:path-effect
       effect="simplify"
       id="path-effect167"
       is_visible="true"
       lpeversion="1.3"
       threshold="0.012"
       steps="1"
       smooth_angles="0"
       helper_size="0"
       simplify_individual_paths="false"
       simplify_just_coalesce="false"
       step="1" />
    <inkscape:path-effect
       effect="powerstroke"
       id="path-effect164"
       is_visible="true"
       lpeversion="1.3"
       scale_width="1"
       interpolator_type="CentripetalCatmullRom"
       interpolator_beta="0.75"
       start_linecap_type="round"
       end_linecap_type="round"
       offset_points="5.8470677,2.3517964"
       linejoin_type="spiro"
       miter_limit="4"
       not_jump="true"
       sort_points="true"
       message="" />
    <inkscape:path-effect
       effect="simplify"
       id="path-effect163"
       is_visible="true"
       lpeversion="1.3"
       threshold="0.012"
       steps="1"
       smooth_angles="0"
       helper_size="0"
       simplify_individual_paths="false"
       simplify_just_coalesce="false"
       step="1" />
    <inkscape:path-effect
       effect="powerstroke"
       id="path-effect154"
       is_visible="true"
       lpeversion="1.3"
       scale_width="1"
       interpolator_type="CentripetalCatmullRom"
       interpolator_beta="0.75"
       start_linecap_type="round"
       end_linecap_type="round"
       offset_points="9.9508727,2.3517964"
       linejoin_type="spiro"
       miter_limit="4"
       not_jump="true"
       sort_points="true"
       message="" />
    <inkscape:path-effect
       effect="simplify"
       id="path-effect153"
       is_visible="true"
       lpeversion="1.3"
       threshold="0.012"
       steps="1"
       smooth_angles="0"
       helper_size="0"
       simplify_individual_paths="false"
       simplify_just_coalesce="false"
       step="1" />
    <inkscape:path-effect
       effect="powerstroke"
       id="path-effect150"
       is_visible="true"
       lpeversion="1.3"
       scale_width="1"
       interpolator_type="CentripetalCatmullRom"
       interpolator_beta="0.75"
       start_linecap_type="round"
       end_linecap_type="round"
       offset_points="11.647105,4.7035928"
       linejoin_type="spiro"
       miter_limit="4"
       not_jump="true"
       sort_points="true"
       message="&lt;b&gt;Ctrl + click&lt;/b&gt; on existing node and move it" />
    <inkscape:path-effect
       effect="simplify"
       id="path-effect149"
       is_visible="true"
       lpeversion="1.3"
       threshold="0.012"
       steps="1"
       smooth_angles="0"
       helper_size="0"
       simplify_individual_paths="false"
       simplify_just_coalesce="false"
       step="1" />
    <inkscape:path-effect
       effect="powerstroke"
       id="path-effect138"
       is_visible="true"
       lpeversion="1.3"
       scale_width="1"
       interpolator_type="CentripetalCatmullRom"
       interpolator_beta="0.75"
       start_linecap_type="round"
       end_linecap_type="round"
       offset_points="6.3871553,4.7035928"
       linejoin_type="spiro"
       miter_limit="4"
       not_jump="true"
       sort_points="true"
       message="matrix(1.0034223,0,0,0.99999934,-76.782571,-59.211329)" />
    <inkscape:path-effect
       effect="simplify"
       id="path-effect137"
       is_visible="true"
       lpeversion="1.3"
       threshold="0.012"
       steps="1"
       smooth_angles="0"
       helper_size="0"
       simplify_individual_paths="false"
       simplify_just_coalesce="false"
       step="1" />
    <inkscape:path-effect
       effect="powerstroke"
       id="path-effect134"
       is_visible="true"
       lpeversion="1.3"
       scale_width="1"
       interpolator_type="CentripetalCatmullRom"
       interpolator_beta="0.75"
       start_linecap_type="round"
       end_linecap_type="round"
       offset_points="4.5021303,6.6518847"
       linejoin_type="spiro"
       miter_limit="4"
       not_jump="true"
       sort_points="true"
       message="matrix(1.1635431,0,0,1.2114822,-29.466172,-35.715278)" />
    <inkscape:path-effect
       effect="simplify"
       id="path-effect133"
       is_visible="true"
       lpeversion="1.3"
       threshold="0.012"
       steps="1"
       smooth_angles="0"
       helper_size="0"
       simplify_individual_paths="false"
       simplify_just_coalesce="false"
       step="1" />
    <inkscape:path-effect
       effect="powerstroke"
       id="path-effect80"
       is_visible="true"
       lpeversion="1.3"
       scale_width="1"
       interpolator_type="CentripetalCatmullRom"
       interpolator_beta="0.75"
       start_linecap_type="round"
       end_linecap_type="round"
       offset_points="10.450288,6.6518847"
       linejoin_type="spiro"
       miter_limit="4"
       not_jump="true"
       sort_points="true"
       message="&lt;b&gt;Ctrl + click&lt;/b&gt; on existing node and move it" />
    <inkscape:path-effect
       effect="simplify"
       id="path-effect79"
       is_visible="true"
       lpeversion="1.3"
       threshold="0.012"
       steps="1"
       smooth_angles="0"
       helper_size="0"
       simplify_individual_paths="false"
       simplify_just_coalesce="false"
       step="1" />
    <inkscape:path-effect
       effect="powerstroke"
       id="path-effect56"
       is_visible="true"
       lpeversion="1.3"
       scale_width="1"
       interpolator_type="CentripetalCatmullRom"
       interpolator_beta="0.75"
       start_linecap_type="round"
       end_linecap_type="round"
       offset_points="30.372718,6.6518847"
       linejoin_type="spiro"
       miter_limit="4"
       not_jump="true"
       sort_points="true"
       message="&lt;b&gt;Ctrl + click&lt;/b&gt; on existing node and move it" />
    <inkscape:path-effect
       effect="simplify"
       id="path-effect55"
       is_visible="true"
       lpeversion="1.3"
       threshold="0.012"
       steps="1"
       smooth_angles="0"
       helper_size="0"
       simplify_individual_paths="false"
       simplify_just_coalesce="false"
       step="1" />
    <inkscape:path-effect
       effect="powerstroke"
       id="path-effect54"
       is_visible="true"
       lpeversion="1.3"
       scale_width="1"
       interpolator_type="CentripetalCatmullRom"
       interpolator_beta="0.75"
       start_linecap_type="round"
       end_linecap_type="round"
       offset_points="28.391377,6.6518847"
       linejoin_type="spiro"
       miter_limit="4"
       not_jump="true"
       sort_points="true"
       message="&lt;b&gt;Ctrl + click&lt;/b&gt; on existing node and move it" />
    <inkscape:path-effect
       effect="simplify"
       id="path-effect53"
       is_visible="true"
       lpeversion="1.3"
       threshold="0.012"
       steps="1"
       smooth_angles="0"
       helper_size="0"
       simplify_individual_paths="false"
       simplify_just_coalesce="false"
       step="1" />
    <inkscape:path-effect
       effect="powerstroke"
       id="path-effect52"
       is_visible="true"
       lpeversion="1.3"
       scale_width="1"
       interpolator_type="CentripetalCatmullRom"
       interpolator_beta="0.75"
       start_linecap_type="round"
       end_linecap_type="round"
       offset_points="48.637683,6.6518847"
       linejoin_type="spiro"
       miter_limit="4"
       not_jump="true"
       sort_points="true"
       message="" />
    <inkscape:path-effect
       effect="simplify"
       id="path-effect51"
       is_visible="true"
       lpeversion="1.3"
       threshold="0.012"
       steps="1"
       smooth_angles="0"
       helper_size="0"
       simplify_individual_paths="false"
       simplify_just_coalesce="false"
       step="1" />
    <inkscape:path-effect
       effect="powerstroke"
       id="path-effect50"
       is_visible="true"
       lpeversion="1.3"
       scale_width="1"
       interpolator_type="CentripetalCatmullRom"
       interpolator_beta="0.75"
       start_linecap_type="round"
       end_linecap_type="round"
       offset_points="7.6170955,6.6518847"
       linejoin_type="spiro"
       miter_limit="4"
       not_jump="true"
       sort_points="true"
       message="@™OEw" />
    <inkscape:path-effect
       effect="simplify"
       id="path-effect49"
       is_visible="true"
       lpeversion="1.3"
       threshold="0.012"
       steps="1"
       smooth_angles="0"
       helper_size="0"
       simplify_individual_paths="false"
       simplify_just_coalesce="false"
       step="1" />
    <inkscape:path-effect
       effect="powerstroke"
       id="path-effect46"
       is_visible="true"
       lpeversion="1.3"
       scale_width="1"
       interpolator_type="CentripetalCatmullRom"
       interpolator_beta="0.75"
       start_linecap_type="round"
       end_linecap_type="round"
       offset_points="17.306905,6.6518847"
       linejoin_type="spiro"
       miter_limit="4"
       not_jump="true"
       sort_points="true"
       message="À˜OEw" />
    <inkscape:path-effect
       effect="simplify"
       id="path-effect45"
       is_visible="true"
       lpeversion="1.3"
       threshold="0.012"
       steps="1"
       smooth_angles="0"
       helper_size="0"
       simplify_individual_paths="false"
       simplify_just_coalesce="false"
       step="1" />
    <inkscape:path-effect
       effect="powerstroke"
       id="path-effect42"
       is_visible="true"
       lpeversion="1.3"
       scale_width="1"
       interpolator_type="CentripetalCatmullRom"
       interpolator_beta="0.75"
       start_linecap_type="round"
       end_linecap_type="round"
       offset_points="2.9542245,6.6518847"
       linejoin_type="spiro"
       miter_limit="4"
       not_jump="true"
       sort_points="true"
       message="@˜OEw" />
    <inkscape:path-effect
       effect="simplify"
       id="path-effect41"
       is_visible="true"
       lpeversion="1.3"
       threshold="0.012"
       steps="1"
       smooth_angles="0"
       helper_size="0"
       simplify_individual_paths="false"
       simplify_just_coalesce="false"
       step="1" />
    <inkscape:path-effect
       effect="powerstroke"
       id="path-effect36"
       is_visible="true"
       lpeversion="1.3"
       scale_width="1"
       interpolator_type="CentripetalCatmullRom"
       interpolator_beta="0.75"
       start_linecap_type="round"
       end_linecap_type="round"
       offset_points="3.6742263,6.6518847"
       linejoin_type="spiro"
       miter_limit="4"
       not_jump="true"
       sort_points="true"
       message="€–OEw" />
    <inkscape:path-effect
       effect="simplify"
       id="path-effect35"
       is_visible="true"
       lpeversion="1.3"
       threshold="0.012"
       steps="1"
       smooth_angles="0"
       helper_size="0"
       simplify_individual_paths="false"
       simplify_just_coalesce="false"
       step="1" />
  </defs>
  <g
     inkscape:groupmode="layer"
     id="layer2"
     inkscape:label="Layer 1"
     transform="matrix(1.1635431,0,0,1.2114822,-29.466172,-35.715278)">
    <path
       d="m 197.57296,205.63065 c 0.44793,-2.3598 1.02802,-5.08919 1.89748,-8.74531 1.06767,-4.48888 2.40345,-9.56064 3.73397,-15.26101 0.50602,-2.1679 1.04568,-4.59275 1.54076,-7.12135 0.75209,-3.83592 1.41763,-7.78387 2.05128,-11.97864 0.81298,-5.38109 1.48079,-10.52509 2.24823,-16.21192 0.44338,-3.28572 0.91703,-6.72248 1.43652,-10.1492 0.0266,-0.17774 0.0514,-0.34627 0.076,-0.5144 0.0343,-0.23487 0.0784,-0.54047 0.11273,-0.77535 0.16945,-1.16665 0.35933,-2.44745 0.56415,-3.76122 0.33317,-2.13775 0.70945,-4.40334 1.1383,-6.72288 0.30013,-1.62172 0.63308,-3.31005 1.00803,-5.01937 0.26944,-1.2268 0.56421,-2.4826 0.89411,-3.73885 0.24328,-0.92487 0.50535,-1.85054 0.7975,-2.76035 0.21295,-0.66164 0.43549,-1.29657 0.67996,-1.90003 0.19944,-0.49011 0.38518,-0.8932 0.57577,-1.23301 0.12492,-0.21964 0.20441,-0.31913 0.19487,-0.30812 -0.004,0.005 -0.009,0.01 -0.0128,0.0147 -0.007,0.008 -0.12498,0.16045 -0.45577,0.36496 -0.0802,0.0499 -0.28235,0.16987 -0.5673,0.28452 -0.72992,0.2928 -1.33985,0.27944 -1.62403,0.25429 -0.005,-4.4e-4 -0.01,-8.9e-4 -0.0149,-0.001 -0.39747,-0.0365 -0.56478,-0.12143 -0.53617,-0.10992 l -0.024,-0.01 c 0.0478,0.0195 0.17429,0.0795 0.45011,0.25547 0.31054,0.20003 0.64168,0.44219 1.01922,0.74002 0.47587,0.37623 0.95829,0.79012 1.45862,1.24033 0.68169,0.61412 1.35807,1.26217 2.03942,1.93918 0.8957,0.89066 1.77804,1.8106 2.65462,2.7523 1.03658,1.1142 2.05469,2.24815 3.05679,3.39533 0.62337,0.71403 1.23389,1.42504 1.83111,2.13632 0.17839,0.21285 0.3394,0.40553 0.49426,0.59516 0.61825,0.76715 1.22752,1.53511 1.8273,2.30022 2.70886,3.4561 5.3133,6.98057 7.8383,10.50168 3.56168,4.96661 7.1014,10.1186 10.54176,15.06189 2.4768,3.55889 4.90789,7.01866 7.3957,10.43945 1.09708,1.51014 2.14878,2.96026 3.23174,4.4269 1.9115,2.58944 3.80905,5.08138 5.77658,7.50112 1.43353,1.76269 2.86453,3.4389 4.325,5.04175 1.32514,1.45382 2.6443,2.81428 3.98432,4.09375 1.26044,1.20297 2.50496,2.30158 3.75818,3.31024 1.27076,1.02226 2.505,1.91551 3.72668,2.70129 0.52262,0.33604 0.99826,0.62351 1.42273,0.86897 a 4.7035928,4.7035928 90 0 0 4.70924,-8.1436 c -0.30457,-0.17612 -0.65353,-0.38681 -1.04363,-0.63764 -0.91608,-0.58922 -1.8815,-1.28463 -2.91765,-2.11816 -1.02253,-0.82298 -2.06833,-1.74384 -3.15989,-2.78563 -1.16071,-1.10825 -2.32777,-2.31003 -3.52698,-3.62569 -1.32165,-1.45051 -2.63727,-2.99009 -3.97941,-4.64041 -1.84317,-2.26681 -3.64654,-4.633 -5.5071,-7.15342 -1.05677,-1.43118 -2.08402,-2.84754 -3.19042,-4.37051 -2.43206,-3.34413 -4.81979,-6.74162 -7.28379,-10.2821 -3.39563,-4.87904 -7.00522,-10.13195 -10.61836,-15.17032 -2.57555,-3.5916 -5.26301,-7.22988 -8.07926,-10.823 -0.6257,-0.79816 -1.26452,-1.60338 -1.91592,-2.41154 -0.006,-0.007 -0.0118,-0.0146 -0.0177,-0.0218 -0.20064,-0.24591 -0.39978,-0.48397 -0.58457,-0.70446 -0.64469,-0.76781 -1.29511,-1.52514 -1.95255,-2.27821 -1.05891,-1.2122 -2.14306,-2.42002 -3.25587,-3.61615 -0.93951,-1.00931 -1.90759,-2.01942 -2.90934,-3.01556 -0.75922,-0.75438 -1.54984,-1.51337 -2.37684,-2.2584 -0.60222,-0.54189 -1.24201,-1.09364 -1.92274,-1.63183 -0.52653,-0.41537 -1.11617,-0.85496 -1.76753,-1.27378 -0.004,-0.002 -0.008,-0.005 -0.0116,-0.007 -0.49504,-0.31626 -1.16405,-0.71388 -1.96283,-1.04021 -0.008,-0.003 -0.016,-0.007 -0.0241,-0.01 -0.45121,-0.18144 -1.19546,-0.44569 -2.11421,-0.52996 -0.005,-4.5e-4 -0.01,-9e-4 -0.0149,-0.001 -0.65331,-0.0578 -1.64305,-0.0439 -2.71678,0.38896 l 0.023,-0.009 c -0.40057,0.15906 -0.70991,0.33776 -0.89981,0.45581 -0.78093,0.48436 -1.33183,1.05111 -1.67416,1.44309 -0.004,0.005 -0.009,0.01 -0.0128,0.0147 -0.57452,0.66335 -0.98663,1.33178 -1.27182,1.835 -0.002,0.004 -0.005,0.009 -0.007,0.0132 -0.4598,0.81744 -0.81494,1.62058 -1.09661,2.31276 -0.36037,0.88954 -0.66066,1.75538 -0.91958,2.55982 -0.35884,1.11747 -0.66747,2.21246 -0.93993,3.24826 -0.37113,1.41322 -0.69549,2.79799 -0.98438,4.1133 -0.40275,1.83611 -0.756,3.62932 -1.06983,5.32507 -0.44889,2.42797 -0.83988,4.78365 -1.18298,6.98509 -0.21157,1.35703 -0.40654,2.67258 -0.57828,3.85499 -0.0408,0.27954 -0.0709,0.48832 -0.11208,0.77086 -0.0236,0.16142 -0.0466,0.31799 -0.0697,0.47238 -0.53004,3.49619 -1.01191,6.99413 -1.45703,10.29277 -0.77546,5.74624 -1.42868,10.77948 -2.22719,16.06478 -0.61879,4.09633 -1.26165,7.90461 -1.98131,11.57509 -0.46648,2.38259 -0.97949,4.69021 -1.47003,6.79182 -1.28693,5.51356 -2.62661,10.60488 -3.72494,15.2227 -0.89663,3.77035 -1.50842,6.64244 -1.98773,9.16759 a 4.7035928,4.7035928 90 0 0 9.24216,1.7543 z"
       id="path-1-61"
       inkscape:path-effect="#path-effect137;#path-effect138"
       inkscape:original-d="m 192.95188,204.7535 c 1.96395,-10.34757 5.10139,-20.60528 7.14808,-31.00534 2.5011,-12.70913 3.78662,-25.45719 5.72464,-38.24924 0.51419,-3.394 3.71842,-27.38319 7.80477,-29.71928 2.86894,-1.64012 15.59639,13.64519 16.34675,14.57718 9.92936,12.33272 18.35801,25.57588 27.64953,38.36038 6.23686,8.5815 15.25908,21.19391 24.84908,26.73946"
       style="fill:#000000;fill-rule:nonzero;stroke:none;fill-opacity:1"
       transform="translate(-27.455107,-52.591789)" />
    <path
       d="m 184.09371,208.3498 c -0.92063,-0.55741 -2.04491,-1.14765 -3.39377,-1.69657 -1.19771,-0.48774 -2.49087,-0.91039 -3.90442,-1.26998 -1.35836,-0.34558 -2.74817,-0.61374 -4.20377,-0.83923 -1.69903,-0.26301 -3.35684,-0.44892 -5.06747,-0.64117 -1.45219,-0.16327 -2.91,-0.32696 -4.32296,-0.54077 -0.61933,-0.0938 -1.24021,-0.19894 -1.85599,-0.32062 -4.14679,-0.81326 -8.25249,-1.70863 -12.57753,-2.6569 -1.87788,-0.41176 -3.83359,-0.84126 -5.77293,-1.25956 -3.14022,-0.67902 -6.19357,-1.3677 -9.42383,-2.08377 -7.34677,-1.62961 -14.75853,-3.24514 -22.09706,-4.97285 -3.97964,-0.93688 -7.95058,-1.90987 -11.903747,-2.94136 -0.0044,-0.001 -0.0088,-0.002 -0.01315,-0.003 -0.243244,-0.0627 -0.482788,-0.12262 -0.715544,-0.17996 -0.125231,-0.0308 -0.250358,-0.0614 -0.377009,-0.0922 -0.781064,-0.18949 -1.605927,-0.3825 -2.464491,-0.57249 -0.630431,-0.13919 -1.316909,-0.28548 -2.026758,-0.42175 -0.410147,-0.0784 -0.880183,-0.16408 -1.375389,-0.23781 -0.257412,-0.0379 -0.60121,-0.0854 -0.98117,-0.11613 -0.0071,-5.8e-4 -0.0143,-0.001 -0.02145,-0.002 -0.147456,-0.0113 -0.5252,-0.0404 -0.968267,-0.0178 -0.03082,0.002 -0.06162,0.003 -0.0924,0.006 -0.03136,0.002 -0.193674,0.008 -0.493133,0.0548 -0.282423,0.0445 -0.741167,0.13956 -1.263694,0.37116 -0.03223,0.0143 -0.06429,0.0289 -0.09619,0.0439 -0.285321,0.13421 -0.771106,0.39546 -1.263105,0.86185 -0.254524,0.24128 -0.539045,0.56426 -0.793162,0.98184 -0.256917,0.42217 -0.473815,0.92721 -0.593853,1.50552 -0.155308,0.7446 -0.191259,1.44502 -0.17667,2.04804 0.01796,0.71619 0.10794,1.3726 0.218788,1.94815 0.140255,0.7246 0.327554,1.39521 0.524796,2.00338 0.250716,0.77111 0.535346,1.49661 0.82581,2.17384 0.418675,0.97477 0.87165,1.89977 1.319471,2.76981 0.301379,0.58575 0.611249,1.16486 0.896016,1.6994 0.166453,0.31323 0.303978,0.57203 0.432111,0.82684 0.07459,0.14849 0.181071,0.37891 0.328262,0.68367 0.623904,1.30435 1.252241,2.60135 1.878556,3.88681 1.023015,2.09866 2.050149,4.18372 3.084954,6.25768 0.814813,1.63239 1.632107,3.25395 2.461724,4.86864 0.541947,1.05406 1.088336,2.10466 1.649,3.15261 0.333031,0.62169 0.67531,1.25146 1.03379,1.88356 0.28772,0.50933 0.61878,1.05773 0.84918,1.44737 2.51639,4.23599 5.01898,8.38015 7.53165,12.45773 2.11681,3.43458 4.21857,6.78628 6.33085,10.07775 1.76213,2.74521 3.50674,5.41025 5.26272,8.01983 1.456,2.16308 2.89363,4.2497 4.34413,6.28507 1.16218,1.63005 2.30623,3.19072 3.46304,4.70566 0.68817,0.90207 1.36694,1.76422 2.02163,2.57732 3.6453,4.54182 7.3012,8.80467 10.77679,12.70728 4.44804,4.99423 8.84576,9.67176 12.81955,13.80207 4.94269,5.13729 9.92444,10.14378 13.83357,14.05304 a 4.7035928,4.7035928 90 0 0 6.652,-6.65176 c -3.9002,-3.90034 -8.82935,-8.85433 -13.70651,-13.9235 -3.9204,-4.07482 -8.23045,-8.65993 -12.57359,-13.53639 -3.39331,-3.81022 -6.94154,-7.94854 -10.46997,-12.34474 -0.6143,-0.76295 -1.24183,-1.56014 -1.87552,-2.3908 -1.08287,-1.41811 -2.16503,-2.89368 -3.28069,-4.45849 -1.3917,-1.95286 -2.78099,-3.96887 -4.20009,-6.07713 -1.71085,-2.54252 -3.41774,-5.14966 -5.1502,-7.84865 -2.07632,-3.23543 -4.14741,-6.53805 -6.23917,-9.93198 -2.48266,-4.02888 -4.95881,-8.12915 -7.44762,-12.3187 -0.29273,-0.49507 -0.52447,-0.87671 -0.75503,-1.28486 -0.30925,-0.54528 -0.61154,-1.1007 -0.927,-1.68958 -0.52609,-0.98334 -1.04681,-1.98423 -1.57574,-3.01298 -0.8072,-1.57105 -1.60719,-3.15814 -2.41127,-4.76901 -1.02017,-2.04464 -2.03452,-4.10371 -3.04577,-6.17824 -0.62138,-1.27533 -1.240441,-2.55327 -1.852539,-3.833 -0.0027,-0.006 -0.0055,-0.0114 -0.0082,-0.0172 -0.09458,-0.1957 -0.221057,-0.47304 -0.397109,-0.82352 -0.185451,-0.36879 -0.374946,-0.72446 -0.532651,-1.02122 -0.300384,-0.56386 -0.572611,-1.07279 -0.836228,-1.58515 -0.391083,-0.75981 -0.738388,-1.4746 -1.039469,-2.17558 -0.209258,-0.4879 -0.383527,-0.93963 -0.523126,-1.36898 -0.110657,-0.3412 -0.186838,-0.63009 -0.235468,-0.88133 -0.03857,-0.20028 -0.04929,-0.32626 -0.05105,-0.39643 -0.0012,-0.0488 0.0065,-0.0164 -0.01773,0.1 -0.116652,0.56199 -0.329041,1.05622 -0.579965,1.46855 -0.248091,0.40767 -0.525079,0.72172 -0.771125,0.95496 -0.474896,0.45018 -0.939668,0.6988 -1.204517,0.82338 -0.0319,0.015 -0.06396,0.0296 -0.09619,0.0439 -0.465025,0.20611 -0.863201,0.28632 -1.084633,0.32119 -0.237486,0.0374 -0.337186,0.0384 -0.307429,0.0363 l -0.0924,0.006 c -0.220164,0.0112 -0.29005,-0.002 -0.225301,0.003 l -0.02145,-0.002 c 0.07398,0.006 0.18045,0.0186 0.362323,0.0454 0.30315,0.0451 0.63028,0.10383 0.982996,0.17123 0.588842,0.11304 1.183172,0.23929 1.76602,0.36798 0.785612,0.17384 1.547992,0.35216 2.273811,0.52825 0.118196,0.0288 0.234095,0.0571 0.347767,0.0851 0.209483,0.0516 0.412224,0.10235 0.610616,0.15348 4.040559,1.05422 8.084659,2.04489 12.116319,2.99402 7.41569,1.74588 14.91614,3.38083 22.21628,5.0001 3.18681,0.70644 6.30065,1.40856 9.47455,2.09487 1.92246,0.41466 3.86022,0.84021 5.74396,1.25326 4.31752,0.94662 8.51902,1.86331 12.77528,2.69803 0.7754,0.15323 1.53832,0.28179 2.26521,0.39184 1.62234,0.24549 3.26246,0.42847 4.67994,0.58784 1.74169,0.19573 3.2056,0.36119 4.6787,0.58923 1.23755,0.19171 2.32346,0.40508 3.32408,0.65964 1.03337,0.26288 1.9127,0.55492 2.67679,0.86608 0.85548,0.34814 1.53763,0.70943 2.06841,1.0308 a 4.7035928,4.7035928 90 0 0 4.87228,-8.04712 z"
       id="path-1-4"
       inkscape:path-effect="#path-effect149;#path-effect150"
       inkscape:original-d="m 181.65757,212.37336 c -6.26087,-3.7892 -14.14331,-3.33065 -21.15225,-4.70346 -6.12822,-1.20031 -12.21777,-2.59039 -18.32182,-3.90808 -3.07798,-0.66445 -6.15004,-1.35601 -9.22411,-2.03832 -11.55799,-2.56537 -23.07927,-5.04642 -34.530816,-8.03335 -1.244631,-0.32464 -7.69453,-1.89063 -7.791685,-1.42578 -0.653019,3.12446 2.80406,8.64197 3.760195,10.6516 2.161233,4.54253 8.252926,17.00013 10.549586,20.87418 6.37779,10.75818 19.41755,32.30973 28.62448,43.83731 11.46524,14.35509 24.57103,27.76501 37.49603,40.69064"
       style="fill:#000000;fill-rule:nonzero;stroke:none;fill-opacity:1"
       transform="translate(-27.455107,-52.591789)" />
    <path
       d="m 219.58483,195.27751 c -0.15132,-1.07709 -0.28698,-2.39894 -0.34516,-3.96106 -0.0485,-1.29952 -0.0422,-2.72543 0.0406,-4.30175 0.0764,-1.45601 0.21516,-2.99078 0.4223,-4.63962 0.20757,-1.65199 0.47531,-3.35319 0.80063,-5.15959 0.37151,-2.06278 0.79198,-4.12079 1.25635,-6.3387 0.24639,-1.17725 0.50566,-2.40133 0.77566,-3.62804 0.22465,-1.02042 0.46171,-2.06313 0.71498,-3.10881 0.15736,-0.65036 0.32252,-1.30757 0.49574,-1.97994 0.20267,-0.78679 0.40537,-1.55573 0.61879,-2.3706 0.22818,-0.87046 0.45828,-1.7537 0.68683,-2.64216 -1.3e-4,5.1e-4 0.0353,-0.13732 0.0352,-0.13682 0.37222,-1.44834 0.75441,-2.96304 1.15603,-4.58092 0.24752,-0.99952 0.50358,-2.09321 0.72477,-3.22278 0.1814,-0.92627 0.34662,-1.91364 0.468,-2.93918 0.10332,-0.87225 0.17648,-1.78608 0.20148,-2.72877 0.006,-0.2354 0.01,-0.47754 0.01,-0.72551 -1e-5,-0.0234 -3.8e-4,-0.0469 -0.001,-0.0703 0.002,0.0643 0.002,0.0713 5.9e-4,0.0181 -7.5e-4,-0.0433 -0.003,-0.17205 -0.0286,-0.33357 -0.10411,-0.66861 -0.2316,-1.35682 -0.61135,-1.91688 -0.18987,-0.28003 -0.43826,-0.52227 -0.73144,-0.69113 -0.29318,-0.16887 -0.62997,-0.26252 -0.9683,-0.26387 -0.33833,-0.001 -0.67586,0.0896 -0.97038,0.25614 -0.29452,0.16652 -0.54483,0.40676 -0.73694,0.68526 -0.38422,0.557 -0.51724,1.24416 -0.62674,1.91191 -0.0406,0.24758 -0.0348,0.34679 -0.0302,0.27817 l -0.002,0.0407 c -0.005,0.10617 -0.008,0.20749 -0.008,0.30246 -4.2e-4,0.0824 -1.8e-4,0.20091 0.008,0.33533 0.005,0.0796 0.0145,0.2085 0.0414,0.36192 0.0745,0.44264 0.1731,0.86581 0.27988,1.26462 0.12525,0.46782 0.2664,0.91901 0.39648,1.33017 0.13353,0.42149 0.27488,0.85579 0.42749,1.29376 0.1178,0.33806 0.24389,0.68129 0.38044,1.02646 0.1181,0.29903 0.24077,0.59079 0.36181,0.87132 0.13089,0.30334 0.26035,0.59673 0.3844,0.88151 0.16342,0.37467 0.32347,0.74729 0.47997,1.1196 0.0949,0.22561 0.18847,0.45064 0.28077,0.67531 0.0416,0.102 0.20811,0.51357 0.25218,0.6217 -0.23557,-0.58177 1.77376,4.37542 1.53852,3.79448 0.79657,1.96056 1.58979,3.90644 2.38644,5.84705 0.5179,1.26124 1.03323,2.51095 1.55264,3.75723 0.31023,0.74396 0.61938,1.48121 0.93318,2.21707 0.16852,0.39478 0.33804,0.78889 0.51236,1.18364 0.0814,0.18456 0.16353,0.36681 0.24537,0.5454 0.12048,0.26585 0.24144,0.54967 0.36458,0.84419 0.18365,0.43985 0.36615,0.89019 0.54867,1.3377 0.28007,0.68733 0.55825,1.36447 0.84933,2.04221 0.37548,0.87436 0.76361,1.73092 1.18257,2.57256 0.33509,0.67283 0.68479,1.32616 1.06002,1.9611 0.32903,0.55642 0.67354,1.09185 1.04289,1.60596 0.33839,0.47072 0.69303,0.91728 1.07242,1.33791 0.3762,0.4168 0.77052,0.80127 1.19057,1.14951 0.0204,0.0168 0.0335,0.0276 0.0457,0.0376 0.004,0.003 0.008,0.007 0.0123,0.0101 0.0146,0.0118 0.0277,0.0225 0.0394,0.032 a 2.3517964,2.3517964 90 0 0 2.9646,-3.6517 c -0.01,-0.008 -0.0211,-0.0172 -0.0333,-0.027 -0.0104,-0.009 -0.0215,-0.0177 -0.0332,-0.0273 -0.21749,-0.18032 -0.44971,-0.40351 -0.69396,-0.67412 -0.24645,-0.27323 -0.49313,-0.58147 -0.74505,-0.93191 -0.27492,-0.38267 -0.5438,-0.79862 -0.81345,-1.25463 -0.30743,-0.5202 -0.60381,-1.07226 -0.89851,-1.66398 -0.36852,-0.74033 -0.71925,-1.51261 -1.07122,-2.33219 -0.27289,-0.63538 -0.53736,-1.27877 -0.81564,-1.96171 -0.17712,-0.43428 -0.3704,-0.91117 -0.56425,-1.37546 -0.12999,-0.31089 -0.27166,-0.64418 -0.42454,-0.98149 -0.0775,-0.16915 -0.15039,-0.33094 -0.22226,-0.49389 -0.16315,-0.36944 -0.32387,-0.74296 -0.48921,-1.13032 -0.30637,-0.71841 -0.61005,-1.44255 -0.91802,-2.1811 -0.51484,-1.23532 -1.02674,-2.47669 -1.54295,-3.73382 -0.79363,-1.93324 -1.58472,-3.87388 -2.37993,-5.83111 -0.12188,-0.29998 -1.41489,-3.49017 -1.53676,-3.79014 -1.00739,-2.48514 0.74868,1.84741 -0.25837,-0.63689 -0.10006,-0.24357 -0.19859,-0.48042 -0.29798,-0.71681 -0.16586,-0.39456 -0.33428,-0.78663 -0.50419,-1.17618 -0.1295,-0.29727 -0.25673,-0.58569 -0.37749,-0.86555 -0.10958,-0.25396 -0.21173,-0.49757 -0.30625,-0.7369 -0.10919,-0.27599 -0.21274,-0.55728 -0.31305,-0.84515 -0.13229,-0.37966 -0.25876,-0.7675 -0.38491,-1.16567 -0.12946,-0.40922 -0.24188,-0.77119 -0.33715,-1.127 -0.0803,-0.29992 -0.1428,-0.57562 -0.18639,-0.83658 -0.002,-0.014 -0.005,-0.028 -0.007,-0.042 0.0188,0.10139 0.0235,0.17612 0.0247,0.19632 7.1e-4,0.0124 -5e-5,0.009 1.7e-4,-0.0339 2.7e-4,-0.0363 0.001,-0.0695 0.003,-0.0967 l -0.002,0.0407 c 0.007,-0.10631 0.0135,-0.0447 -0.0212,0.16656 -0.10946,0.66758 -0.24246,1.35459 -0.62661,1.91144 -0.19208,0.27843 -0.44236,0.5186 -0.73682,0.68506 -0.29446,0.16645 -0.63191,0.25737 -0.97016,0.256 -0.33825,-0.001 -0.67496,-0.095 -0.96806,-0.26389 -0.29309,-0.16884 -0.54141,-0.41103 -0.73123,-0.69101 -0.37963,-0.55994 -0.50708,-1.24799 -0.61117,-1.91644 -0.0238,-0.15318 -0.0261,-0.27357 -0.0267,-0.30852 -7.8e-4,-0.0447 -0.001,-0.0294 8.7e-4,0.0432 l -0.001,-0.0703 c 1e-4,0.203 -0.003,0.40275 -0.008,0.59848 -0.0207,0.78098 -0.0817,1.55066 -0.1705,2.30045 -0.10448,0.88279 -0.24885,1.75031 -0.41296,2.58831 -0.20053,1.02407 -0.43661,2.03531 -0.67421,2.99477 -0.39858,1.60563 -0.77759,3.10772 -1.14628,4.5423 -1.8e-4,7e-4 -0.0347,0.13509 -0.0349,0.13558 -0.2262,0.87937 -0.45439,1.7553 -0.68152,2.62175 -0.21111,0.80601 -0.41789,1.59052 -0.62368,2.38942 -0.17768,0.68968 -0.34864,1.3698 -0.51241,2.04664 -0.26322,1.08678 -0.50785,2.16328 -0.73704,3.20431 -0.27509,1.2498 -0.53812,2.49185 -0.78586,3.6755 -0.46619,2.22665 -0.8979,4.33791 -1.28166,6.46875 -0.33672,1.86971 -0.61831,3.65516 -0.83842,5.40694 -0.21978,1.74955 -0.36953,3.3982 -0.45251,4.97942 -0.0899,1.713 -0.0976,3.27971 -0.0438,4.72347 0.0647,1.73694 0.21611,3.21932 0.38763,4.44023 a 2.3517964,2.3517964 90 0 0 4.65786,-0.65436 z"
       id="path-1-03"
       inkscape:path-effect="#path-effect153;#path-effect154"
       inkscape:original-d="m 217.2559,195.60469 c -1.19589,-8.51496 0.51728,-17.17703 2.2631,-25.50268 1.80429,-8.6045 1.88454,-7.94583 4.42363,-18.16826 0.75103,-3.02365 1.35214,-5.99812 1.35214,-9.11221 0,-0.16226 -0.0264,0.32669 0,0.48678 0.12743,0.7729 0.35833,1.52666 0.59443,2.27356 0.83929,2.65503 1.04322,2.76399 2.24655,5.68718 0.25593,0.6217 5.98638,14.83582 7.3634,17.83962 1.32334,2.88671 3.41498,9.43703 6.78394,12.15309"
       style="fill:#000000;fill-rule:nonzero;stroke:none;fill-opacity:1"
       transform="translate(-27.455107,-52.591789)" />
    <path
       d="m 168.33064,228.45209 c -2.66501,-1.04424 -6.16327,-2.34375 -10.52454,-3.78314 -3.4077,-1.12466 -7.16318,-2.27627 -11.39351,-3.4662 -1.36402,-0.38365 -2.81683,-0.7825 -4.36671,-1.19615 -2.31699,-0.61694 -4.73008,-1.19184 -7.18615,-1.82167 -1.53033,-0.39244 -3.11643,-0.81745 -4.69047,-1.29538 -1.11426,-0.33831 -2.23844,-0.70796 -3.35539,-1.12 -0.19494,-0.0719 -0.39262,-0.14621 -0.5926,-0.22294 -0.22723,-0.0871 -0.47218,-0.18327 -0.7406,-0.29134 -0.0298,-0.012 -0.0598,-0.0234 -0.0901,-0.0341 -0.0413,-0.0147 -0.23091,-0.0836 -0.47972,-0.1202 -0.12878,-0.019 -0.29601,-0.0332 -0.49036,-0.0224 -0.19215,0.0106 -0.41216,0.0458 -0.64514,0.12513 -0.0813,0.0277 -0.1611,0.0598 -0.23893,0.0962 -0.002,0.001 -0.005,0.002 -0.007,0.003 -0.12576,0.0588 -0.24607,0.12872 -0.3595,0.20879 -0.002,0.001 -0.004,0.003 -0.006,0.004 -0.0642,0.0453 -0.126,0.0938 -0.1853,0.14523 -0.1938,0.1682 -0.34472,0.35358 -0.45975,0.53681 -0.1121,0.17857 -0.1868,0.34963 -0.23724,0.49566 -0.0952,0.27554 -0.11945,0.50848 -0.12797,0.62522 -0.001,0.0156 -0.002,0.0313 -0.003,0.047 -0.0232,0.43749 0.0773,0.79102 0.0884,0.8341 0.002,0.009 0.004,0.0172 0.007,0.0258 0.0494,0.18395 0.10713,0.3359 0.14398,0.42892 0.0696,0.17441 0.13956,0.32422 0.19888,0.44589 0.0825,0.16877 0.16679,0.32807 0.25157,0.48028 0.43222,0.77996 0.89671,1.53828 1.37473,2.27599 0.29612,0.45707 0.59773,0.90642 0.90048,1.34926 1.20601,1.76518 2.46096,3.48902 3.7383,5.18397 1.63752,2.17281 3.31917,4.30759 4.97955,6.41348 1.04953,1.33114 2.08277,2.64074 3.10702,3.96046 2.48639,3.20371 5.02908,6.3359 7.6488,9.38376 2.48577,2.89209 5.02872,5.69385 7.64209,8.39547 2.19234,2.26647 4.42099,4.44865 6.68996,6.54332 0.95235,0.87966 1.89925,1.73703 2.84562,2.57383 0.88261,0.78063 1.75915,1.5383 2.62256,2.27122 0.86978,0.73843 1.73224,1.45726 2.56696,2.14605 0.65886,0.54232 1.26829,0.99051 1.795,1.40589 0.37398,0.295 0.68604,0.55471 0.96538,0.81402 0.25992,0.2413 0.46966,0.46282 0.64263,0.67318 0.17599,0.21392 0.31015,0.4123 0.4131,0.59206 0.0947,0.16512 0.16359,0.3152 0.21419,0.44186 a 2.3517964,2.3517964 90 0 0 4.36788,-1.74512 c -0.12207,-0.30552 -0.28428,-0.65719 -0.50091,-1.0351 -0.23764,-0.41493 -0.52325,-0.83034 -0.86153,-1.24151 -0.32859,-0.39963 -0.6887,-0.77369 -1.07524,-1.13255 -0.4085,-0.37921 -0.82887,-0.72567 -1.25265,-1.05995 -0.60311,-0.47564 -1.19155,-0.91051 -1.71641,-1.34252 -0.82052,-0.67709 -1.66547,-1.38137 -2.51436,-2.10206 -0.8417,-0.71449 -1.69402,-1.45127 -2.55068,-2.20893 -0.91863,-0.81227 -1.8402,-1.64666 -2.77053,-2.50598 -2.20107,-2.03199 -4.3664,-4.15195 -6.50024,-6.35794 -2.54376,-2.62966 -5.02467,-5.36269 -7.45577,-8.19117 -2.56227,-2.98102 -5.05533,-6.05167 -7.50004,-9.20168 -1.03744,-1.33671 -2.08252,-2.66128 -3.12921,-3.98882 -1.66432,-2.11088 -3.31495,-4.20659 -4.91685,-6.33213 -1.24682,-1.65448 -2.45682,-3.31733 -3.6113,-5.00711 -0.28842,-0.42187 -0.56725,-0.83751 -0.83636,-1.25289 -0.43522,-0.67168 -0.84068,-1.3353 -1.21059,-2.00281 -0.0532,-0.0955 -0.0975,-0.17994 -0.13648,-0.25957 -0.0308,-0.0632 -0.0465,-0.0993 -0.0548,-0.12012 -0.004,-0.0113 0.008,0.0163 0.0278,0.0888 0.002,0.009 0.005,0.0172 0.007,0.0258 -2.3e-4,-8.7e-4 0.073,0.19781 0.0526,0.58327 -8.3e-4,0.0157 -0.002,0.0313 -0.003,0.047 -0.007,0.0974 -0.0284,0.31061 -0.1173,0.56792 -0.0472,0.13678 -0.11791,0.29903 -0.22491,0.46948 -0.10987,0.17501 -0.25456,0.35291 -0.44086,0.51461 -0.0593,0.0515 -0.12115,0.0999 -0.18531,0.14522 0.002,-0.002 0.004,-0.003 0.006,-0.004 l -0.3595,0.20879 c 0.002,-0.001 0.005,-0.002 0.007,-0.003 l -0.23893,0.0962 c -0.22144,0.0754 -0.4298,0.10854 -0.6104,0.11854 -0.18251,0.0101 -0.33794,-0.003 -0.45517,-0.0206 -0.22491,-0.0331 -0.39088,-0.0944 -0.4113,-0.10165 -0.0303,-0.0108 -0.0603,-0.0221 -0.0901,-0.0341 0.29157,0.11739 0.56081,0.22311 0.81292,0.31977 0.21922,0.0841 0.43594,0.16556 0.6491,0.24419 1.22024,0.45014 2.43383,0.84864 3.61674,1.2078 1.66807,0.50647 3.32866,0.9508 4.88863,1.35084 2.51158,0.64406 4.90483,1.21443 7.14295,1.81037 1.52822,0.40787 2.96086,0.8012 4.30471,1.17917 4.1667,1.17204 7.85519,2.30335 11.19294,3.40493 4.27042,1.4094 7.68766,2.6791 10.28269,3.69592 a 2.3517964,2.3517964 90 0 0 1.716,-4.3794 z"
       id="path-1-5"
       inkscape:path-effect="#path-effect163;#path-effect164"
       inkscape:original-d="m 167.47264,230.64179 c -8.44471,-3.30893 -17.14009,-5.98519 -25.9,-8.32739 -5.68282,-1.51946 -11.50897,-2.67418 -16.96326,-4.87478 -0.30688,-0.12381 0.10303,0.6676 0.26297,0.95731 0.62535,1.1327 1.32757,2.22296 2.05509,3.2929 3.665,5.38993 7.87933,10.49019 11.87038,15.63264 6.61433,8.52251 13.69043,16.61252 21.62025,23.94592 2.7923,2.58228 5.11019,4.58188 8.01376,6.97847 1.7843,1.47275 3.85414,2.67356 4.73832,4.88564"
       style="fill:#000000;fill-rule:nonzero;stroke:none;fill-opacity:1"
       transform="translate(-27.455107,-52.591789)" />
    <path
       d="m 288.90669,174.36829 c -2.19782,-0.11588 -5.14099,-0.13552 -8.7174,0.21789 -2.69236,0.26618 -5.69726,0.73806 -9.00824,1.51906 -2.87089,0.67751 -5.91997,1.57475 -9.14445,2.74763 -2.98522,1.08631 -6.08535,2.39574 -9.28607,3.96644 -1.47733,0.72525 -2.97479,1.50546 -4.48881,2.34493 -1.36925,0.75921 -2.81537,1.60201 -4.32382,2.53645 -1.55416,0.96295 -3.24567,2.06762 -5.03025,3.32347 -1.36212,0.95579 -2.5323,1.69773 -4.31596,2.87652 -1.18002,0.77982 -2.5776,1.72076 -3.9605,2.76591 -0.96328,0.72798 -1.99505,1.56291 -3.021,2.50894 -3.15246,2.90695 -6.16943,6.12389 -9.00414,9.64164 -2.91096,3.61316 -5.62,7.53139 -8.06079,11.7349 -2.39469,4.12511 -4.53285,8.52844 -6.32611,13.17659 -1.61268,4.18104 -2.95208,8.57686 -3.92887,13.14293 -0.87646,4.09748 -1.46352,8.3483 -1.68198,12.6962 -0.15741,3.12998 -0.1239,6.3241 0.13323,9.54975 0.17884,2.25534 0.45157,4.47414 0.75614,6.65025 0.44745,3.1967 0.96151,6.29187 1.36639,9.30055 0.0616,0.4568 0.12104,0.91887 0.17986,1.39154 5.4e-4,0.004 0.001,0.009 0.002,0.0131 0.40134,3.17364 0.9373,6.39424 1.66035,9.62063 0.67467,3.00976 1.51641,6.04171 2.57423,9.04653 0.96836,2.75097 2.12156,5.4873 3.49326,8.15663 1.23548,2.40509 2.64831,4.75397 4.24935,7.00298 1.49414,2.09982 3.14716,4.10446 4.95013,5.98394 1.80733,1.88493 3.75588,3.63373 5.81999,5.23152 l -0.0113,-0.009 c 0.2993,0.23272 0.71119,0.54891 1.17911,0.86753 1.12455,0.76867 2.27235,1.38693 3.37731,1.89428 1.23372,0.56614 2.4556,1.01401 3.61222,1.38443 1.4069,0.45007 2.78693,0.80763 4.07191,1.11462 1.48923,0.35576 2.89384,0.65365 4.20061,0.95295 0.91732,0.21054 1.73809,0.40947 2.51479,0.62926 0.41013,0.11714 0.87646,0.2575 1.39301,0.40739 2.77344,0.81136 5.55585,1.61274 8.36315,2.37225 2.7444,0.74185 5.51596,1.44448 8.32624,2.05925 2.88179,0.6302 5.80436,1.16633 8.76937,1.54617 2.42954,0.31168 4.86747,0.5147 7.30659,0.59049 2.43353,0.0763 4.84514,0.0249 7.22016,-0.14606 2.74495,-0.19675 5.42891,-0.55188 8.02785,-1.0224 3.34382,-0.60498 6.57634,-1.40418 9.66119,-2.30203 2.8152,-0.81964 5.53987,-1.73025 8.14915,-2.67575 1.47779,-0.53758 2.9027,-1.12687 4.28019,-1.77138 1.44384,-0.67615 2.8423,-1.41596 4.18875,-2.23571 1.23603,-0.75313 2.42499,-1.57151 3.55329,-2.47472 1.07169,-0.85847 2.08227,-1.78841 3.0096,-2.80736 0.93129,-1.02369 1.76349,-2.12169 2.46978,-3.29897 0.71648,-1.19364 1.27334,-2.4221 1.67347,-3.659 0.0568,-0.17544 0.10608,-0.33764 0.14801,-0.48183 a 6.6518847,6.6518847 90 0 0 -12.7746,-3.7148 c -0.009,0.0293 -0.0187,0.0629 -0.0308,0.10008 -0.0818,0.25288 -0.21351,0.56014 -0.42355,0.91005 -0.21229,0.35385 -0.50333,0.75238 -0.90233,1.19097 -0.40031,0.43987 -0.88868,0.89836 -1.4853,1.37627 -0.62829,0.50295 -1.34315,1.00066 -2.15798,1.49715 -0.88673,0.53986 -1.8537,1.05486 -2.90848,1.54882 -1.00509,0.47027 -2.06549,0.90982 -3.18027,1.31535 -2.38759,0.86516 -4.83702,1.68221 -7.32735,2.40727 -2.72842,0.79411 -5.50461,1.47655 -8.3121,1.9845 -2.17604,0.39396 -4.38482,0.68429 -6.61162,0.8439 -1.92486,0.13853 -3.87846,0.18027 -5.85191,0.11836 -1.97961,-0.0615 -3.98938,-0.22718 -6.03009,-0.48898 -2.49821,-0.32004 -5.0283,-0.7805 -7.61845,-1.34693 -2.53222,-0.55394 -5.08245,-1.19872 -7.69587,-1.90517 -2.6773,-0.72433 -5.36031,-1.49667 -8.10778,-2.30046 -0.005,-0.001 -0.01,-0.003 -0.0146,-0.004 -0.43206,-0.12532 -0.91716,-0.27162 -1.46004,-0.42668 -0.005,-0.001 -0.009,-0.003 -0.0142,-0.004 -1.10075,-0.31176 -2.1785,-0.56978 -3.17417,-0.7983 -1.44624,-0.33124 -2.81115,-0.62159 -4.08247,-0.9253 -1.1214,-0.2679 -2.14564,-0.53778 -3.10752,-0.84549 -0.78713,-0.25209 -1.48837,-0.51586 -2.11787,-0.80473 -0.5612,-0.25768 -1.03123,-0.52068 -1.42242,-0.78834 -0.005,-0.004 -0.0104,-0.007 -0.0156,-0.0106 -0.10812,-0.0735 -0.25111,-0.17936 -0.50228,-0.37465 -0.004,-0.003 -0.008,-0.006 -0.0113,-0.009 -1.55386,-1.20282 -3.01363,-2.51389 -4.36177,-3.91992 -1.34525,-1.40234 -2.58564,-2.9053 -3.71297,-4.4896 -1.20892,-1.69821 -2.29315,-3.49628 -3.25491,-5.36852 -1.06908,-2.08043 -1.98937,-4.25508 -2.77762,-6.49438 -0.86193,-2.44839 -1.56574,-4.97028 -2.14147,-7.53864 -0.61675,-2.75209 -1.08538,-5.55049 -1.44259,-8.37375 -0.0629,-0.50566 -0.12797,-1.01131 -0.19625,-1.5178 -0.44155,-3.28115 -0.95949,-6.39482 -1.37575,-9.3687 -0.28509,-2.03696 -0.51951,-3.96833 -0.66956,-5.86054 -0.20941,-2.62702 -0.23808,-5.24409 -0.10815,-7.82744 0.18041,-3.59087 0.66702,-7.13382 1.40443,-10.58123 0.82203,-3.84263 1.95513,-7.56885 3.33168,-11.1377 1.53083,-3.96792 3.36153,-7.74054 5.4191,-11.28494 2.09698,-3.61139 4.42205,-6.97339 6.91495,-10.06764 2.42721,-3.01205 4.99681,-5.74947 7.66329,-8.2083 0.63147,-0.58227 1.31284,-1.13843 2.02369,-1.67565 1.03567,-0.78272 2.14735,-1.53584 3.27423,-2.28054 1.57382,-1.04012 3.05811,-1.98758 4.63,-3.09057 1.5593,-1.09732 3.03238,-2.05943 4.3877,-2.89918 1.31631,-0.81541 2.57694,-1.55005 3.76857,-2.21077 1.3177,-0.73062 2.61884,-1.40847 3.89942,-2.03713 2.77408,-1.36134 5.43645,-2.48419 7.97274,-3.40713 2.73805,-0.99595 5.28905,-1.74404 7.65094,-2.30144 2.7208,-0.64178 5.14209,-1.01849 7.26183,-1.22805 2.80749,-0.27743 5.07053,-0.25818 6.70836,-0.17183 a 6.6518847,6.6518847 90 0 0 0.70046,-13.28532 z"
       id="path-1"
       inkscape:path-effect="#path-effect133;#path-effect134"
       inkscape:original-d="m 288.55646,181.01095 c -15.91298,-0.83903 -32.99262,6.43479 -45.77883,15.42376 -3.56408,2.50562 -7.43856,4.66246 -10.6582,7.63104 -17.2604,15.91451 -28.53861,40.49201 -26.77289,64.18715 0.42737,5.73506 1.56346,11.49536 2.27495,17.19919 1.98339,15.90027 7.27185,30.93076 20.55293,41.04085 4.46704,3.40048 11.48773,4.01805 16.6897,5.54697 24.2149,7.11707 37.27728,10.12945 62.75737,0.90906 5.67042,-2.05194 13.44812,-6.09648 15.26853,-12.35655"
       style="fill:#000000;fill-rule:nonzero;stroke:none;fill-opacity:1"
       transform="matrix(1.0034223,0,0,0.99999934,-43.710385,-40.330709)" />
  </g>
</svg>
